<svg width="100" height="80" viewBox="0 0 100 80" fill="none" xmlns="http://www.w3.org/2000/svg">
<rect width="80" height="60" rx="6" fill="#E5E5E5"/>
<rect x="2" y="2" width="76" height="56" rx="4" fill="url(#paint0_linear_107_286)"/>
<circle cx="8" cy="8" r="2" fill="#525252"/>
<circle cx="14" cy="8" r="2" fill="#525252"/>
<circle cx="20" cy="8" r="2" fill="#525252"/>
<rect x="6" y="14" width="10" height="4" rx="2" fill="#525252"/>
<rect x="42" y="20" width="10" height="4" rx="2" fill="#525252"/>
<rect x="28" y="26" width="10" height="4" rx="2" fill="#525252" fill-opacity="0.75"/>
<rect x="18" y="44" width="10" height="4" rx="2" fill="#525252" fill-opacity="0.25"/>
<rect x="6" y="32" width="10" height="4" rx="2" fill="#525252" fill-opacity="0.5"/>
<rect x="6" y="38" width="10" height="4" rx="2" fill="#525252" fill-opacity="0.25"/>
<rect x="6" y="50" width="10" height="4" rx="2" fill="#525252" fill-opacity="0.25"/>
<rect x="6" y="44" width="10" height="4" rx="2" fill="#525252" fill-opacity="0.25"/>
<rect x="18" y="14" width="20" height="4" rx="2" fill="#525252"/>
<rect x="54" y="38" width="20" height="4" rx="2" fill="#525252" fill-opacity="0.25"/>
<rect x="54" y="50" width="20" height="4" rx="2" fill="#525252" fill-opacity="0.25"/>
<rect x="18" y="32" width="20" height="4" rx="2" fill="#525252" fill-opacity="0.5"/>
<rect x="6" y="26" width="20" height="4" rx="2" fill="#525252" fill-opacity="0.75"/>
<rect x="54" y="20" width="20" height="4" rx="2" fill="#525252"/>
<rect x="40" y="14" width="34" height="4" rx="2" fill="#525252"/>
<rect x="18" y="38" width="34" height="4" rx="2" fill="#525252" fill-opacity="0.25"/>
<rect x="18" y="50" width="34" height="4" rx="2" fill="#525252" fill-opacity="0.25"/>
<rect x="40" y="26" width="34" height="4" rx="2" fill="#525252" fill-opacity="0.75"/>
<rect x="6" y="20" width="34" height="4" rx="2" fill="#525252"/>
<rect x="30" y="44" width="44" height="4" rx="2" fill="#525252" fill-opacity="0.25"/>
<rect x="40" y="32" width="34" height="4" rx="2" fill="#525252" fill-opacity="0.5"/>
<rect x="20" y="20" width="80" height="60" rx="6" fill="#E5E5E5" fill-opacity="0.75"/>
<rect x="22" y="22" width="76" height="56" rx="4" fill="#FAFAFA"/>
<circle cx="28" cy="28" r="2" fill="#EF4444"/>
<circle cx="34" cy="28" r="2" fill="#EAB308"/>
<circle cx="40" cy="28" r="2" fill="#4ADE80"/>
<rect x="26" y="34" width="10" height="4" rx="2" fill="#E5E5E5"/>
<rect x="62" y="40" width="10" height="4" rx="2" fill="#E5E5E5"/>
<rect x="48" y="46" width="10" height="4" rx="2" fill="#E5E5E5" fill-opacity="0.75"/>
<rect x="38" y="64" width="10" height="4" rx="2" fill="#E5E5E5" fill-opacity="0.25"/>
<rect x="26" y="52" width="10" height="4" rx="2" fill="#E5E5E5" fill-opacity="0.5"/>
<rect x="26" y="58" width="10" height="4" rx="2" fill="#E5E5E5" fill-opacity="0.25"/>
<rect x="26" y="70" width="10" height="4" rx="2" fill="#E5E5E5" fill-opacity="0.25"/>
<rect x="26" y="64" width="10" height="4" rx="2" fill="#E5E5E5" fill-opacity="0.25"/>
<rect x="38" y="34" width="20" height="4" rx="2" fill="#E5E5E5"/>
<rect x="74" y="58" width="20" height="4" rx="2" fill="#E5E5E5" fill-opacity="0.25"/>
<rect x="74" y="70" width="20" height="4" rx="2" fill="#E5E5E5" fill-opacity="0.25"/>
<rect x="38" y="52" width="20" height="4" rx="2" fill="#E5E5E5" fill-opacity="0.5"/>
<rect x="26" y="46" width="20" height="4" rx="2" fill="#E5E5E5" fill-opacity="0.75"/>
<rect x="74" y="40" width="20" height="4" rx="2" fill="#E5E5E5"/>
<rect x="60" y="34" width="34" height="4" rx="2" fill="#E5E5E5"/>
<rect x="38" y="58" width="34" height="4" rx="2" fill="#E5E5E5" fill-opacity="0.25"/>
<rect x="38" y="70" width="34" height="4" rx="2" fill="#E5E5E5" fill-opacity="0.25"/>
<rect x="60" y="46" width="34" height="4" rx="2" fill="#E5E5E5" fill-opacity="0.75"/>
<rect x="26" y="40" width="34" height="4" rx="2" fill="#E5E5E5"/>
<rect x="50" y="64" width="44" height="4" rx="2" fill="#E5E5E5" fill-opacity="0.25"/>
<rect x="60" y="52" width="34" height="4" rx="2" fill="#E5E5E5" fill-opacity="0.5"/>
<defs>
<linearGradient id="paint0_linear_107_286" x1="40" y1="2" x2="40" y2="58" gradientUnits="userSpaceOnUse">
<stop stop-color="#262626"/>
<stop offset="1" stop-color="#0A0A0A"/>
</linearGradient>
</defs>
</svg>
