<svg width="90" height="70" viewBox="0 0 90 70" fill="none" xmlns="http://www.w3.org/2000/svg">
<rect width="80" height="60" rx="6" fill="#E5E5E5"/>
<rect x="2" y="2" width="76" height="56" rx="4" fill="white"/>
<circle cx="8" cy="8" r="2" fill="#EF4444"/>
<circle cx="14" cy="8" r="2" fill="#EAB308"/>
<circle cx="20" cy="8" r="2" fill="#4ADE80"/>
<rect x="6" y="14" width="10" height="4" rx="2" fill="#E5E5E5"/>
<rect x="6" y="50" width="10" height="4" rx="2" fill="#E5E5E5"/>
<rect x="6" y="38" width="4" height="4" rx="1" fill="#E5E5E5"/>
<rect x="12" y="38" width="4" height="4" rx="1" fill="#E5E5E5"/>
<rect x="18" y="38" width="4" height="4" rx="1" fill="#E5E5E5"/>
<rect x="24" y="38" width="4" height="4" rx="1" fill="#E5E5E5"/>
<rect x="18" y="14" width="20" height="4" rx="2" fill="#E5E5E5"/>
<rect x="18" y="50" width="20" height="4" rx="2" fill="#E5E5E5"/>
<rect x="6" y="20" width="34" height="4" rx="2" fill="#E5E5E5"/>
<rect x="6" y="44" width="34" height="4" rx="2" fill="#E5E5E5"/>
<path d="M10.2969 34.6992C10.1133 34.6992 9.97656 34.5977 9.97656 34.3789V34.0156C9.46875 33.9688 9.00781 33.793 8.69922 33.5234C8.45312 33.3125 8.30859 33.0625 8.30859 32.832C8.30859 32.6016 8.46094 32.4648 8.67188 32.4648C8.80469 32.4648 8.88672 32.5039 9.07031 32.7109C9.42578 33.1328 9.81641 33.3203 10.3281 33.3203C11 33.3203 11.3867 33.0117 11.3867 32.5156C11.3867 32.1328 11.1406 31.9102 10.5508 31.7656L9.71094 31.5586C8.85938 31.3594 8.40234 30.8555 8.40234 30.1289C8.40234 29.2852 9.02734 28.6992 10.0039 28.6094V28.2695C10.0039 28.0508 10.1406 27.9492 10.3203 27.9492C10.5 27.9492 10.6406 28.0508 10.6406 28.2695V28.6211C11.1055 28.6836 11.5234 28.8594 11.8047 29.1328C12.0312 29.3477 12.1641 29.5938 12.1641 29.8086C12.1641 30.0156 12.0195 30.1484 11.8242 30.1484C11.668 30.1484 11.5547 30.0859 11.3945 29.8984C11.0547 29.4766 10.7344 29.3086 10.2617 29.3086C9.66797 29.3086 9.28516 29.6211 9.28516 30.0703C9.28516 30.4297 9.53906 30.6875 10.0352 30.8008L10.8633 31C11.8164 31.2227 12.2656 31.6836 12.2656 32.4375C12.2656 33.3125 11.6328 33.9141 10.6094 34.0195V34.3789C10.6094 34.5977 10.4766 34.6992 10.2969 34.6992ZM17.0625 33.5898V32.957H15.0664C14.7109 32.957 14.4883 32.7656 14.4883 32.4531C14.4883 32.293 14.5352 32.1445 14.6758 31.8711C15.1719 30.9609 15.5586 30.3203 16.3438 29.1562C16.625 28.7422 16.8438 28.5977 17.1875 28.5977C17.6367 28.5977 17.9023 28.8438 17.9023 29.2656V32.2188H18.2266C18.4805 32.2188 18.6328 32.3594 18.6328 32.5898C18.6328 32.8203 18.4844 32.957 18.2266 32.957H17.9023V33.5898C17.9023 33.875 17.7461 34.043 17.4805 34.043C17.2188 34.043 17.0625 33.875 17.0625 33.5898ZM15.3125 32.2188H17.0625V29.3945H17.0195C16.4609 30.2305 15.7305 31.4414 15.3125 32.1836V32.2188ZM21.7578 33.5898V32.957H19.7617C19.4062 32.957 19.1836 32.7656 19.1836 32.4531C19.1836 32.293 19.2305 32.1445 19.3711 31.8711C19.8672 30.9609 20.2539 30.3203 21.0391 29.1562C21.3203 28.7422 21.5391 28.5977 21.8828 28.5977C22.332 28.5977 22.5977 28.8438 22.5977 29.2656V32.2188H22.9219C23.1758 32.2188 23.3281 32.3594 23.3281 32.5898C23.3281 32.8203 23.1797 32.957 22.9219 32.957H22.5977V33.5898C22.5977 33.875 22.4414 34.043 22.1758 34.043C21.9141 34.043 21.7578 33.875 21.7578 33.5898ZM20.0078 32.2188H21.7578V29.3945H21.7148C21.1562 30.2305 20.4258 31.4414 20.0078 32.1836V32.2188ZM23.9766 33.543C23.9766 33.25 24.2188 33.0078 24.5117 33.0078C24.8047 33.0078 25.0469 33.25 25.0469 33.543C25.0469 33.8398 24.8047 34.082 24.5117 34.082C24.2188 34.082 23.9766 33.8398 23.9766 33.543ZM26.4336 33.5625V29.5625H26.4102L25.7812 30.0117C25.6406 30.1094 25.5469 30.1445 25.4492 30.1445C25.2656 30.1445 25.125 30 25.125 29.8164C25.125 29.6758 25.2109 29.5469 25.3945 29.4219L26.1328 28.8906C26.3984 28.7031 26.582 28.6328 26.7695 28.6328C27.0898 28.6328 27.3086 28.8633 27.3086 29.1992V33.5625C27.3086 33.8672 27.1484 34.043 26.8711 34.043C26.5977 34.043 26.4336 33.8633 26.4336 33.5625ZM28.332 31.4531C28.332 29.6016 29.082 28.5703 30.4297 28.5703C30.875 28.5703 31.2891 28.6875 31.6016 28.8945C31.8672 29.0703 32.0312 29.3008 32.0312 29.4961C32.0312 29.6992 31.8789 29.8438 31.6758 29.8438C31.5469 29.8438 31.4492 29.7969 31.2852 29.6562C31.0078 29.4062 30.7422 29.293 30.4219 29.293C29.6133 29.293 29.1836 30.0039 29.1758 31.3438H29.207C29.3906 30.875 29.9297 30.5469 30.5273 30.5469C31.5117 30.5469 32.207 31.2578 32.207 32.2773C32.207 33.3711 31.4453 34.1133 30.3203 34.1133C29.6523 34.1133 29.1133 33.8438 28.7773 33.3398C28.4805 32.8984 28.332 32.2695 28.332 31.4531ZM29.2891 32.3086C29.2891 32.9414 29.7266 33.3906 30.3398 33.3906C30.9453 33.3906 31.3516 32.9609 31.3516 32.3125C31.3516 31.668 30.9414 31.2422 30.3203 31.2422C29.7148 31.2422 29.2891 31.6797 29.2891 32.3086Z" fill="#0A0A0A"/>
<rect x="44" y="24" width="46" height="46" rx="6" fill="#E5E5E5" fill-opacity="0.75"/>
<rect x="46" y="26" width="42" height="42" rx="4" fill="url(#paint0_linear_107_285)"/>
<path d="M67 36.1666V44.173L73.7704 47.2011L67 36.1666Z" fill="#8FFCF3"/>
<path d="M66.9995 36.1666L60.2292 47.1999L66.9995 44.1743V36.1666Z" fill="#CABCF8"/>
<path d="M67 52.3899V57.8332L73.7704 48.4631L67 52.3899Z" fill="#CBA7F5"/>
<path d="M66.9995 57.8332V52.3899L60.2292 48.4631L66.9995 57.8332Z" fill="#74A0F3"/>
<path d="M67 51.1281L73.7704 47.2014L67 44.1732V51.1281Z" fill="#CBA7F5"/>
<path d="M60.2292 47.2014L66.9995 51.1281V44.1732L60.2292 47.2014Z" fill="#74A0F3"/>
<path fill-rule="evenodd" clip-rule="evenodd" d="M66.9995 51.1279L60.2292 47.2011L66.9995 36.1666L73.7699 47.1999L66.9995 51.1279ZM60.6779 46.8814L66.8909 36.7581V44.1187L60.6779 46.8814ZM60.5857 47.1569L66.8909 44.3563V50.8132L60.5857 47.1569ZM67.107 44.3563V50.8132L73.4072 47.1569L67.107 44.3563ZM67.107 44.1187L73.32 46.8814L67.107 36.7581V44.1187Z" fill="#202699"/>
<path fill-rule="evenodd" clip-rule="evenodd" d="M66.9995 52.3039L60.2292 48.4581L66.9995 57.8331L73.7699 48.4568L66.9995 52.3039ZM60.9875 49.1342L66.8909 52.4935V57.3138L60.9875 49.1342ZM67.107 52.4935V57.3138L73.0116 49.1342L67.107 52.4935Z" fill="#202699"/>
<defs>
<linearGradient id="paint0_linear_107_285" x1="46" y1="26" x2="88" y2="68" gradientUnits="userSpaceOnUse">
<stop stop-color="#CABCF8"/>
<stop offset="0.75" stop-color="#E5E5E5"/>
</linearGradient>
</defs>
</svg>
