<svg width="32" height="32" viewBox="0 0 32 32" fill="none" xmlns="http://www.w3.org/2000/svg">
<path d="M19.1738 4.25L19.2441 4.25977C19.3116 4.27961 19.3685 4.32793 19.3994 4.39355L30.2266 27.3936C30.2629 27.4709 30.2567 27.5616 30.2109 27.6338C30.1651 27.7061 30.0856 27.75 30 27.75H24.4756C24.3777 27.7498 24.2885 27.6927 24.248 27.6035L15.9922 9.35352L7.75195 27.6025C7.71157 27.692 7.62252 27.7498 7.52441 27.75H2C1.91441 27.75 1.83492 27.7061 1.78906 27.6338C1.74326 27.5616 1.73708 27.4709 1.77344 27.3936L12.6006 4.39355L12.6396 4.33398C12.6863 4.2815 12.7538 4.25008 12.8262 4.25H19.1738Z" fill="#0A0A0A" stroke="#0A0A0A" stroke-width="0.5" stroke-linejoin="round"/>
</svg>
