<svg width="713" height="143" viewBox="0 0 713 143" fill="none" xmlns="http://www.w3.org/2000/svg">
<path d="M0 143L67.6653 0H87.7473V27.0541H87.1538L34.5252 143H0ZM140.475 143L87.7473 27.0541V0H107.335L175 143H140.475Z" fill="#0A0A0A"/>
<path d="M214.193 99.0991V63.9189H218.264L294.821 0H336.326L258.081 64.8108L254.01 64.6126L214.193 99.0991ZM185 143V0H217.767V143H185ZM298.296 143L231.47 72.6396L256.294 54.1081L340 143H298.296Z" fill="#0A0A0A"/>
<path d="M350 143V0H383V143H350Z" fill="#0A0A0A"/>
<path d="M393 143V0H421.821L533.936 117.532L502.342 98.8018H516.208V0H548V143H519.179L407.064 24.8739L438.658 43.7027H424.891V143H393Z" fill="#0A0A0A"/>
<path d="M558 143V0H586.821L698.936 117.532L667.342 98.8018H681.208V0H713V143H684.179L572.064 24.8739L603.658 43.7027H589.891V143H558Z" fill="#0A0A0A"/>
</svg>
