<svg width="96" height="96" viewBox="0 0 96 96" fill="none" xmlns="http://www.w3.org/2000/svg">
<g clip-path="url(#clip0_163_2)">
<rect width="96" height="96" rx="48" fill="#BBF7D0"/>
<rect width="48" height="20" transform="translate(24 67)" fill="#0A0A0A"/>
<path d="M53.5577 108.175C52.2249 109.411 50.8526 110.535 49.364 111.524C48.4055 112.161 47.5124 112.156 46.5613 111.525C42.7031 108.965 39.5364 105.779 37.3906 101.668C36.459 99.8836 35.8284 98.0019 35.636 95.9905C35.6211 95.8342 35.5665 95.6809 35.5596 95.525C35.5443 95.1751 35.3497 95.1385 35.056 95.1935C33.2104 95.5387 31.3493 95.6892 29.4693 95.6944C24.3565 95.7084 19.5657 94.4735 15.0771 92.0876C11.8552 90.3751 8.96191 88.2394 6.62776 85.4197C6.61655 85.4061 6.60527 85.3926 6.59441 85.3788C5.73858 84.2909 5.79551 83.7081 6.83933 82.772C8.15644 81.5907 9.60124 80.587 11.1574 79.74C13.3706 78.5354 15.7043 77.6437 18.1796 77.1246C18.352 77.0884 18.5213 77.036 18.6889 76.9817C18.7344 76.967 18.7685 76.9179 18.81 76.8827C18.8125 76.6298 18.6106 76.5206 18.4563 76.3889C12.2768 71.1146 8.62192 64.3996 6.86528 56.5924C6.26385 53.9194 5.98769 51.2197 6.0216 48.4834C6.04416 46.6631 6.46337 46.1642 8.30426 46.221C10.9066 46.3015 13.4617 46.7548 15.9941 47.361C22.3612 48.885 27.9166 51.8778 32.7069 56.2807C32.8085 56.3741 32.9202 56.4569 33.0294 56.5464C33.1849 56.4246 33.1189 56.2749 33.1189 56.1467C33.1202 54.0824 33.0625 52.0165 33.1237 49.9541C33.355 42.1581 35.3239 34.8752 39.7623 28.3358C41.6226 25.595 43.686 23.0278 46.2036 20.8399C47.4835 19.7278 48.4352 19.7154 49.7117 20.8309C52.387 23.1687 54.5379 25.9382 56.4404 28.9041C58.5751 32.2321 60.207 35.7868 61.2623 39.592C61.8466 41.6989 62.2383 43.8412 62.4939 46.0125C62.871 49.2146 62.9455 52.4252 62.8783 55.6431C62.8734 55.8781 62.8052 56.129 62.9673 56.3527C63.2137 56.3365 63.3383 56.1482 63.4885 56.0138C67.3841 52.5283 71.7864 49.8915 76.793 48.279C80.2485 47.166 83.7735 46.3779 87.4182 46.2136C87.8921 46.1922 88.3733 46.2387 88.8456 46.2973C89.3956 46.3655 89.7578 46.7628 89.8725 47.3556C90.0638 48.345 89.9964 49.3443 89.947 50.3371C89.7573 54.1477 88.974 57.8423 87.6497 61.4242C85.5404 67.1297 82.3106 72.0908 77.6625 76.1117C77.4225 76.3193 76.9832 76.4969 77.0802 76.8483C77.1666 77.1614 77.6213 77.0895 77.9178 77.1562C82.1626 78.1106 85.9281 79.9813 89.149 82.8905C90.1244 83.7715 90.1682 84.2918 89.3544 85.3182C87.519 87.6334 85.2257 89.4386 82.7376 91.0079C79.1925 93.2439 75.3399 94.7323 71.1942 95.4346C69.0099 95.8046 66.8047 95.8758 64.587 95.7155C63.3344 95.6249 62.0899 95.5096 60.8559 95.2833C60.4849 95.2152 60.2819 95.3413 60.2561 95.732C60.0261 99.2136 58.4582 102.156 56.4512 104.918C55.6024 106.086 54.6317 107.151 53.5577 108.175ZM42.5756 76.9134C43.1832 77.7777 44.0105 78.0372 44.8044 77.6123C45.5914 77.1912 45.8975 76.3171 45.5584 75.4592C43.7175 70.8018 38.8831 67.9633 33.881 68.5775C29.5131 69.1138 26.6508 71.5522 24.9111 75.437C24.746 75.8057 24.7304 76.1822 24.8479 76.5608C25.0612 77.2485 25.6748 77.7403 26.3517 77.7825C27.0651 77.827 27.6799 77.4682 27.9685 76.744C28.3293 75.8383 28.7781 74.9965 29.4765 74.3018C29.6014 74.1776 29.687 73.9655 29.9634 74.0249C29.9961 75.9302 30.786 77.3429 32.7346 77.8795C34.121 78.2612 35.3765 77.8953 36.2691 76.7911C37.6368 75.0992 37.2994 73.431 35.8505 71.8247C36.4999 71.7682 37.0067 71.9156 37.5 72.0725C39.9588 72.8548 41.5375 74.5549 42.5756 76.9134ZM61.3769 76.479C62.4653 74.8253 62.0125 73.3057 60.8614 71.8405C61.0291 71.8102 61.0969 71.789 61.1653 71.7874C61.3066 71.7841 61.4499 71.7785 61.5895 71.7959C63.5921 72.0457 65.2484 72.9225 66.5332 74.4709C67.0522 75.0964 67.4825 75.7687 67.7995 76.5217C68.173 77.4089 68.9844 77.8775 69.6962 77.6841C70.8345 77.3747 71.354 76.3643 70.8652 75.2582C69.1013 71.2665 65.9303 69.0399 61.6337 68.531C57.999 68.1004 54.8158 69.2523 52.3155 71.9748C51.3485 73.0278 50.5552 74.2152 50.0437 75.555C49.7105 76.4276 50.1792 77.3575 51.0551 77.6978C51.857 78.0094 52.7117 77.636 53.1123 76.7933C53.2176 76.5719 53.2996 76.3399 53.4032 76.1178C53.7436 75.3875 54.2581 74.787 54.8835 74.0607C54.9863 76.2537 56.0026 77.5629 58.0383 77.9151C59.3836 78.1478 60.4935 77.6055 61.3769 76.479ZM54.8442 83.7742C55.1935 83.3841 55.4701 82.9617 55.3522 82.4081C55.0856 81.156 53.8555 80.6368 52.7472 81.3114C50.7025 82.5561 48.4931 82.9444 46.1381 82.5553C45.0252 82.3714 44.0252 81.9036 43.0587 81.3373C42.0257 80.732 40.8235 81.2463 40.6176 82.3428C40.4767 83.093 40.804 83.7111 41.6098 84.2042C44.1844 85.7795 46.9878 86.2782 49.9513 85.8201C51.712 85.548 53.3686 84.9455 54.8442 83.7742Z" fill="#4ADE80"/>
</g>
<defs>
<clipPath id="clip0_163_2">
<rect width="96" height="96" rx="48" fill="white"/>
</clipPath>
</defs>
</svg>
